<svg xmlns="http://www.w3.org/2000/svg" xmlns:xlink="http://www.w3.org/1999/xlink" width="254" height="254" viewBox="0 0 254 254" fill="none"><path     fill="#2A82E4"  d="M0 254L254 254L254 0L0 0L0 254Z"></path><g filter="url(#filter_7_2)"><path     fill="#FFFFFF"  d="M47.29 99.183L46.49 99.183L46.49 150.453L32.34 150.453L32.34 88.153L57.88 88.153L66.52 133.633L75.15 88.153L100.69 88.153L100.69 150.453L86.54 150.453L86.54 99.183L85.83 99.183L75.15 150.453L57.88 150.453L47.29 99.183Z"></path><path     fill="#FFFFFF"  d="M110.48 141.903C110.48 141.903 118.5 138.5 135.49 117.213C139.4 110.926 139.67 107.193 139.67 107.193C139.67 104.704 138.94 97.9272 128.1 97.943C120.775 97.943 114.525 101.59 111.64 103.373L111.64 93.043C115.422 90.679 122.663 86.993 131.58 86.993C141.548 86.993 147.37 91.843 147.37 91.843C153.2 96.6935 153.2 105.063 153.2 105.063C153.2 111.026 149.2 117.833 149.2 117.833C145.195 124.641 140.03 129.933 140.03 129.933C134.868 135.228 127.75 141.553 127.75 141.553L125.17 139.773L153.65 139.773L153.65 150.453L110.48 150.453L110.48 141.903Z"></path><path     fill="#FFFFFF"  d="M159.43 88.153L175.36 88.153L190.32 140.573L205.62 88.153L221.55 88.153L202.33 150.453L178.66 150.453L159.43 88.153Z"></path></g><defs><filter id="filter_7_2" x="32.34002685546875" y="88.15298461914062" width="190.21002197265625" height="66.29998779296875" filterUnits="userSpaceOnUse" color-interpolation-filters="sRGB"><feFlood flood-opacity="0" result="feFloodId_7_2"/><feColorMatrix in="SourceAlpha" type="matrix" values="0 0 0 0 0 0 0 0 0 0 0 0 0 0 0 0 0 0 127 0" result="hardAlpha_7_2"/><feOffset dx="1" dy="4"/><feComposite in2="hardAlpha_7_2" operator="out"/><feColorMatrix type="matrix" values="0 0 0 0 0 0 0 0 0 0 0 0 0 0 0 0 0 0 0.25 0"/><feBlend mode="normal" in2="feFloodId_7_2" result="dropShadow_1_7_2"/><feBlend mode="normal" in="SourceGraphic" in2="dropShadow_1_7_2" result="shape_7_2"/></filter></defs></svg>